<mxfile host="app.diagrams.net" modified="2022-05-30T09:25:37.080Z" agent="5.0 (Windows NT 10.0; Win64; x64) AppleWebKit/537.36 (KHTML, like Gecko) Chrome/101.0.4951.67 Safari/537.36" etag="AqhMSC2MEAETdSLn7AdX" version="18.1.2" type="github">
  <diagram id="3RnQnGzQmvyOuvG-1qNs" name="Page-1">
    <mxGraphModel dx="982" dy="568" grid="1" gridSize="10" guides="1" tooltips="1" connect="1" arrows="1" fold="1" page="1" pageScale="1" pageWidth="850" pageHeight="1100" math="0" shadow="0">
      <root>
        <mxCell id="0" />
        <mxCell id="1" parent="0" />
        <mxCell id="aWTYAugdT14N94gFdjlv-4" style="edgeStyle=orthogonalEdgeStyle;rounded=0;orthogonalLoop=1;jettySize=auto;html=1;exitX=0.25;exitY=1;exitDx=0;exitDy=0;entryX=0.25;entryY=0;entryDx=0;entryDy=0;" edge="1" parent="1" source="aWTYAugdT14N94gFdjlv-1" target="aWTYAugdT14N94gFdjlv-3">
          <mxGeometry relative="1" as="geometry" />
        </mxCell>
        <mxCell id="aWTYAugdT14N94gFdjlv-1" value="Service" style="rounded=0;whiteSpace=wrap;html=1;" vertex="1" parent="1">
          <mxGeometry x="320" y="120" width="120" height="60" as="geometry" />
        </mxCell>
        <mxCell id="aWTYAugdT14N94gFdjlv-5" style="edgeStyle=orthogonalEdgeStyle;rounded=0;orthogonalLoop=1;jettySize=auto;html=1;exitX=0.75;exitY=0;exitDx=0;exitDy=0;entryX=0.75;entryY=1;entryDx=0;entryDy=0;" edge="1" parent="1" source="aWTYAugdT14N94gFdjlv-3" target="aWTYAugdT14N94gFdjlv-1">
          <mxGeometry relative="1" as="geometry" />
        </mxCell>
        <mxCell id="aWTYAugdT14N94gFdjlv-9" style="edgeStyle=orthogonalEdgeStyle;rounded=0;orthogonalLoop=1;jettySize=auto;html=1;exitX=0.5;exitY=1;exitDx=0;exitDy=0;entryX=0.5;entryY=0;entryDx=0;entryDy=0;entryPerimeter=0;startArrow=classic;startFill=1;" edge="1" parent="1" source="aWTYAugdT14N94gFdjlv-3" target="aWTYAugdT14N94gFdjlv-7">
          <mxGeometry relative="1" as="geometry" />
        </mxCell>
        <mxCell id="aWTYAugdT14N94gFdjlv-3" value="Rate Limiter" style="rounded=0;whiteSpace=wrap;html=1;" vertex="1" parent="1">
          <mxGeometry x="320" y="200" width="120" height="60" as="geometry" />
        </mxCell>
        <mxCell id="aWTYAugdT14N94gFdjlv-7" value="DB" style="shape=cylinder3;whiteSpace=wrap;html=1;boundedLbl=1;backgroundOutline=1;size=15;" vertex="1" parent="1">
          <mxGeometry x="350" y="280" width="60" height="80" as="geometry" />
        </mxCell>
        <mxCell id="aWTYAugdT14N94gFdjlv-10" value="" style="endArrow=classic;html=1;rounded=0;entryX=0;entryY=0.5;entryDx=0;entryDy=0;" edge="1" parent="1" target="aWTYAugdT14N94gFdjlv-1">
          <mxGeometry width="50" height="50" relative="1" as="geometry">
            <mxPoint x="230" y="150" as="sourcePoint" />
            <mxPoint x="300" y="160" as="targetPoint" />
          </mxGeometry>
        </mxCell>
        <mxCell id="aWTYAugdT14N94gFdjlv-30" style="edgeStyle=orthogonalEdgeStyle;rounded=0;orthogonalLoop=1;jettySize=auto;html=1;exitX=0.5;exitY=1;exitDx=0;exitDy=0;startArrow=classic;startFill=1;" edge="1" parent="1" source="aWTYAugdT14N94gFdjlv-17" target="aWTYAugdT14N94gFdjlv-29">
          <mxGeometry relative="1" as="geometry" />
        </mxCell>
        <mxCell id="aWTYAugdT14N94gFdjlv-33" style="edgeStyle=orthogonalEdgeStyle;rounded=0;orthogonalLoop=1;jettySize=auto;html=1;exitX=0.5;exitY=1;exitDx=0;exitDy=0;startArrow=classic;startFill=1;" edge="1" parent="1" source="aWTYAugdT14N94gFdjlv-17" target="aWTYAugdT14N94gFdjlv-32">
          <mxGeometry relative="1" as="geometry">
            <Array as="points">
              <mxPoint x="380" y="600" />
              <mxPoint x="455" y="600" />
            </Array>
          </mxGeometry>
        </mxCell>
        <mxCell id="aWTYAugdT14N94gFdjlv-17" value="Rate Limiters" style="rounded=0;whiteSpace=wrap;html=1;" vertex="1" parent="1">
          <mxGeometry x="320" y="520" width="120" height="60" as="geometry" />
        </mxCell>
        <mxCell id="aWTYAugdT14N94gFdjlv-18" value="DB" style="shape=cylinder3;whiteSpace=wrap;html=1;boundedLbl=1;backgroundOutline=1;size=15;" vertex="1" parent="1">
          <mxGeometry x="270" y="730" width="60" height="80" as="geometry" />
        </mxCell>
        <mxCell id="aWTYAugdT14N94gFdjlv-19" value="" style="endArrow=classic;html=1;rounded=0;entryX=0;entryY=0.5;entryDx=0;entryDy=0;startArrow=classic;startFill=1;" edge="1" parent="1" source="aWTYAugdT14N94gFdjlv-20">
          <mxGeometry width="50" height="50" relative="1" as="geometry">
            <mxPoint x="230" y="470" as="sourcePoint" />
            <mxPoint x="320.0000000000002" y="470" as="targetPoint" />
          </mxGeometry>
        </mxCell>
        <mxCell id="aWTYAugdT14N94gFdjlv-20" value="Load Balancer" style="rounded=0;whiteSpace=wrap;html=1;" vertex="1" parent="1">
          <mxGeometry x="160" y="440" width="120" height="60" as="geometry" />
        </mxCell>
        <mxCell id="aWTYAugdT14N94gFdjlv-27" style="edgeStyle=orthogonalEdgeStyle;rounded=0;orthogonalLoop=1;jettySize=auto;html=1;exitX=1;exitY=0.5;exitDx=0;exitDy=0;startArrow=classic;startFill=1;" edge="1" parent="1" source="aWTYAugdT14N94gFdjlv-21" target="aWTYAugdT14N94gFdjlv-22">
          <mxGeometry relative="1" as="geometry" />
        </mxCell>
        <mxCell id="aWTYAugdT14N94gFdjlv-28" style="edgeStyle=orthogonalEdgeStyle;rounded=0;orthogonalLoop=1;jettySize=auto;html=1;exitX=0.5;exitY=1;exitDx=0;exitDy=0;startArrow=classic;startFill=1;" edge="1" parent="1" source="aWTYAugdT14N94gFdjlv-21" target="aWTYAugdT14N94gFdjlv-17">
          <mxGeometry relative="1" as="geometry" />
        </mxCell>
        <mxCell id="aWTYAugdT14N94gFdjlv-21" value="Gateway&lt;br&gt;Instances" style="rounded=0;whiteSpace=wrap;html=1;" vertex="1" parent="1">
          <mxGeometry x="320" y="440" width="120" height="60" as="geometry" />
        </mxCell>
        <mxCell id="aWTYAugdT14N94gFdjlv-22" value="Services" style="rounded=0;whiteSpace=wrap;html=1;" vertex="1" parent="1">
          <mxGeometry x="480" y="440" width="120" height="60" as="geometry" />
        </mxCell>
        <mxCell id="aWTYAugdT14N94gFdjlv-24" value="Persistence" style="text;html=1;align=center;verticalAlign=middle;resizable=0;points=[];autosize=1;strokeColor=none;fillColor=none;" vertex="1" parent="1">
          <mxGeometry x="440" y="310" width="80" height="20" as="geometry" />
        </mxCell>
        <mxCell id="aWTYAugdT14N94gFdjlv-31" style="edgeStyle=orthogonalEdgeStyle;rounded=0;orthogonalLoop=1;jettySize=auto;html=1;exitX=0.5;exitY=1;exitDx=0;exitDy=0;exitPerimeter=0;startArrow=classic;startFill=1;" edge="1" parent="1" source="aWTYAugdT14N94gFdjlv-29" target="aWTYAugdT14N94gFdjlv-18">
          <mxGeometry relative="1" as="geometry" />
        </mxCell>
        <mxCell id="aWTYAugdT14N94gFdjlv-29" value="Cache" style="ellipse;shape=cloud;whiteSpace=wrap;html=1;" vertex="1" parent="1">
          <mxGeometry x="240" y="610" width="120" height="80" as="geometry" />
        </mxCell>
        <mxCell id="aWTYAugdT14N94gFdjlv-32" value="In-Mem&lt;br&gt;KV DB&lt;br&gt;Cluster" style="shape=cylinder3;whiteSpace=wrap;html=1;boundedLbl=1;backgroundOutline=1;size=15;" vertex="1" parent="1">
          <mxGeometry x="425" y="730" width="60" height="80" as="geometry" />
        </mxCell>
        <mxCell id="aWTYAugdT14N94gFdjlv-34" value="Gateway&lt;br&gt;Instances" style="rounded=0;whiteSpace=wrap;html=1;" vertex="1" parent="1">
          <mxGeometry x="330" y="430" width="120" height="60" as="geometry" />
        </mxCell>
        <mxCell id="aWTYAugdT14N94gFdjlv-35" value="Services" style="rounded=0;whiteSpace=wrap;html=1;" vertex="1" parent="1">
          <mxGeometry x="490" y="430" width="120" height="60" as="geometry" />
        </mxCell>
        <mxCell id="aWTYAugdT14N94gFdjlv-36" value="Load Balancer" style="rounded=0;whiteSpace=wrap;html=1;" vertex="1" parent="1">
          <mxGeometry x="170" y="430" width="120" height="60" as="geometry" />
        </mxCell>
        <mxCell id="aWTYAugdT14N94gFdjlv-37" value="Rate Limiters" style="rounded=0;whiteSpace=wrap;html=1;" vertex="1" parent="1">
          <mxGeometry x="330" y="510" width="120" height="60" as="geometry" />
        </mxCell>
      </root>
    </mxGraphModel>
  </diagram>
</mxfile>
